<?xml version="1.0" encoding="UTF-8" standalone="no"?>
<svg width="32" height="32" viewBox="0 0 32 32" xmlns="http://www.w3.org/2000/svg">
  <!-- Background circle -->
  <circle cx="16" cy="16" r="15" fill="#16162e" stroke="#3498db" stroke-width="1" />
  
  <!-- Simplified brain outline -->
  <path d="M16 5
           C10 5, 7 11, 7 16
           C7 21, 10 27, 16 27
           C22 27, 25 21, 25 16
           C25 11, 22 5, 16 5"
        fill="none" stroke="#6c7ae0" stroke-width="1.2" stroke-linecap="round" />
  
  <!-- Neural network nodes -->
  <circle cx="12" cy="12" r="1.2" fill="#e74c3c" />
  <circle cx="20" cy="12" r="1.2" fill="#e74c3c" />
  <circle cx="16" cy="15" r="1.2" fill="#f39c12" />
  <circle cx="10" cy="18" r="1.2" fill="#2ecc71" />
  <circle cx="22" cy="18" r="1.2" fill="#2ecc71" />
  <circle cx="13" cy="22" r="1.2" fill="#9b59b6" />
  <circle cx="19" cy="22" r="1.2" fill="#9b59b6" />
  
  <!-- Neural connections -->
  <line x1="12" y1="12" x2="16" y2="15" stroke="#e74c3c" stroke-width="0.6" opacity="0.7" />
  <line x1="20" y1="12" x2="16" y2="15" stroke="#e74c3c" stroke-width="0.6" opacity="0.7" />
  <line x1="10" y1="18" x2="16" y2="15" stroke="#2ecc71" stroke-width="0.6" opacity="0.7" />
  <line x1="22" y1="18" x2="16" y2="15" stroke="#2ecc71" stroke-width="0.6" opacity="0.7" />
  <line x1="13" y1="22" x2="16" y2="15" stroke="#9b59b6" stroke-width="0.6" opacity="0.7" />
  <line x1="19" y1="22" x2="16" y2="15" stroke="#9b59b6" stroke-width="0.6" opacity="0.7" />
  
  <line x1="10" y1="18" x2="13" y2="22" stroke="#2ecc71" stroke-width="0.6" opacity="0.7" />
  <line x1="22" y1="18" x2="19" y2="22" stroke="#2ecc71" stroke-width="0.6" opacity="0.7" />
  <line x1="12" y1="12" x2="10" y2="18" stroke="#e74c3c" stroke-width="0.6" opacity="0.7" />
  <line x1="20" y1="12" x2="22" y2="18" stroke="#e74c3c" stroke-width="0.6" opacity="0.7" />
  
  <!-- Center glow -->
  <circle cx="16" cy="16" r="3" fill="#3498db" opacity="0.3" />
  
  <!-- T for Trilogy -->
  <path d="M14.5 10 L17.5 10 L17.5 11 L16.5 11 L16.5 14 L15.5 14 L15.5 11 L14.5 11 Z" 
        fill="#ffffff" opacity="0.8" />
</svg> 